<svg width="646" height="232" viewBox="0 0 646 232" fill="none" xmlns="http://www.w3.org/2000/svg">
<path d="M117.123 172.311C117.123 164.791 114.438 158.932 109.066 154.732C103.793 150.533 94.4668 146.188 81.0879 141.695C67.709 137.203 56.7715 132.857 48.2754 128.658C20.6387 115.084 6.82031 96.4316 6.82031 72.7012C6.82031 60.8848 10.2383 50.4844 17.0742 41.5C24.0078 32.418 33.7734 25.3867 46.3711 20.4062C58.9688 15.3281 73.1289 12.7891 88.8516 12.7891C104.184 12.7891 117.904 15.5234 130.014 20.9922C142.221 26.4609 151.693 34.2734 158.432 44.4297C165.17 54.4883 168.539 66.0117 168.539 79H117.27C117.27 70.3086 114.584 63.5703 109.213 58.7852C103.939 54 96.7617 51.6074 87.6797 51.6074C78.5 51.6074 71.2246 53.6582 65.8535 57.7598C60.5801 61.7637 57.9434 66.8906 57.9434 73.1406C57.9434 78.6094 60.873 83.5898 66.7324 88.082C72.5918 92.4766 82.8945 97.0664 97.6406 101.852C112.387 106.539 124.496 111.617 133.969 117.086C157.016 130.367 168.539 148.678 168.539 172.018C168.539 190.67 161.508 205.318 147.445 215.963C133.383 226.607 114.096 231.93 89.584 231.93C72.2988 231.93 56.625 228.854 42.5625 222.701C28.5977 216.451 18.0508 207.955 10.9219 197.213C3.89062 186.373 0.375 173.922 0.375 159.859H51.9375C51.9375 171.285 54.8672 179.732 60.7266 185.201C66.6836 190.572 76.3027 193.258 89.584 193.258C98.0801 193.258 104.77 191.451 109.652 187.838C114.633 184.127 117.123 178.951 117.123 172.311ZM287.045 211.861C276.596 225.24 262.484 231.93 244.711 231.93C227.328 231.93 214.145 226.9 205.16 216.842C196.273 206.686 191.83 192.135 191.83 173.189V70.5039H241.195V173.482C241.195 187.057 247.787 193.844 260.971 193.844C272.299 193.844 280.355 189.791 285.141 181.686V70.5039H334.799V229H288.51L287.045 211.861ZM457.846 115.182L441.586 114.01C426.059 114.01 416.098 118.893 411.703 128.658V229H362.338V70.5039H408.627L410.238 90.8652C418.539 75.3379 430.111 67.5742 444.955 67.5742C450.229 67.5742 454.818 68.1602 458.725 69.332L457.846 115.182ZM489.486 229V104.781H466.488V70.5039H489.486V57.9062C489.486 39.8398 494.809 25.8262 505.453 15.8652C516.098 5.9043 531.039 0.923828 550.277 0.923828C557.309 0.923828 565.023 1.94922 573.422 4L573.568 40.3281C570.541 39.4492 566.488 39.0098 561.41 39.0098C546.469 39.0098 538.998 45.4551 538.998 58.3457V70.5039H569.906V104.781H538.998V229H489.486ZM617.807 181.1C625.619 181.1 632.113 183.443 637.289 188.131C642.465 192.721 645.053 198.629 645.053 205.855C645.053 213.082 642.465 219.039 637.289 223.727C632.113 228.316 625.619 230.611 617.807 230.611C609.896 230.611 603.354 228.268 598.178 223.58C593.1 218.893 590.561 212.984 590.561 205.855C590.561 198.727 593.1 192.818 598.178 188.131C603.354 183.443 609.896 181.1 617.807 181.1Z" fill="black"/>
</svg>
