<svg width="626" height="233" viewBox="0 0 626 233" fill="none" xmlns="http://www.w3.org/2000/svg">
<path d="M113.48 171.285C115.629 160.25 109.672 151.705 95.6094 145.65L71.5859 135.689C37.8945 120.553 21.8789 99.9473 23.5391 73.873C24.2227 61.959 28.3242 51.3633 35.8438 42.0859C43.3633 32.7109 53.7637 25.4355 67.0449 20.2598C80.3262 15.084 94.8281 12.5938 110.551 12.7891C131.645 13.1797 148.588 19.332 161.381 31.2461C174.271 43.1602 180.619 59.127 180.424 79.1465H130.619C130.912 70.9434 129.154 64.4004 125.346 59.5176C121.635 54.5371 115.482 51.9492 106.889 51.7539C98.4902 51.5586 91.0684 53.5117 84.623 57.6133C78.1777 61.7148 74.3691 67.2324 73.1973 74.166C71.3418 83.9316 78.5684 91.9395 94.877 98.1895C111.283 104.439 123.197 109.811 130.619 114.303C153.959 128.268 164.896 147.115 163.432 170.846C162.65 183.15 158.695 193.941 151.566 203.219C144.438 212.496 134.525 219.674 121.83 224.752C109.232 229.83 95.0723 232.271 79.3496 232.076C67.8262 231.881 57.1328 230.074 47.2695 226.656C37.4062 223.238 28.959 218.258 21.9277 211.715C7.66992 198.531 0.833984 181.197 1.41992 159.713L51.6641 159.859C51.0781 170.797 53.1777 179.098 57.9629 184.762C62.748 190.328 70.8047 193.111 82.1328 193.111C90.5312 193.111 97.5137 191.207 103.08 187.398C108.744 183.492 112.211 178.121 113.48 171.285ZM275.785 211.715C263.969 225.68 249.711 232.467 233.012 232.076C217.484 231.881 205.766 226.461 197.855 215.816C190.043 205.172 187.016 190.914 188.773 173.043L205.912 70.5039H254.105L236.674 173.629C236.381 176.461 236.381 179.049 236.674 181.393C237.357 189.4 242.094 193.551 250.883 193.844C261.039 194.234 269.682 190.23 276.811 181.832L296.439 70.5039H344.926L317.387 229H272.562L275.785 211.715ZM457.719 115.182C452.543 114.4 447.562 113.912 442.777 113.717C428.324 113.326 417.289 118.307 409.672 128.658L391.801 229H343.607L371.146 70.5039L416.117 70.3574L412.455 91.1582C422.807 75.1426 435.014 67.1348 449.076 67.1348C453.08 67.1348 458.061 67.8184 464.018 69.1855L457.719 115.182ZM468.705 229L490.238 104.781H467.973L473.832 70.5039L496.098 70.3574L498.002 56.4414C500.443 39.5469 507.182 26.1191 518.217 16.1582C530.033 5.61133 545.414 0.435547 564.359 0.630859C569.242 0.630859 577.201 1.70508 588.236 3.85352L584.574 40.3281C580.082 39.1562 576.273 38.5703 573.148 38.5703C566.02 38.5703 560.111 40.2305 555.424 43.5508C550.834 46.7734 547.904 51.4609 546.635 57.6133L544.438 70.5039H574.467L568.607 104.781H538.578L517.045 229H468.705ZM572.562 206.734C572.367 199.312 574.906 193.16 580.18 188.277C585.453 183.395 591.752 180.953 599.076 180.953C606.303 180.953 612.455 183.199 617.533 187.691C622.611 192.086 625.248 197.848 625.443 204.977C625.639 212.301 623.148 218.453 617.973 223.434C612.797 228.316 606.449 230.758 598.93 230.758C591.508 230.758 585.307 228.512 580.326 224.02C575.346 219.527 572.758 213.766 572.562 206.734Z" fill="black"/>
</svg>
