<svg width="214.844" height="77.003" viewBox="0 0 214.844 77.003" xmlns="http://www.w3.org/2000/svg"><g id="svgGroup" stroke-linecap="round" fill-rule="evenodd" font-size="9pt" stroke="#000" stroke-width="0.25mm" fill="none" style="stroke:#000;stroke-width:0.25mm;fill:none"><path d="M 56.055 26.025 L 38.965 26.025 A 11.399 11.399 0 0 0 38.65 23.269 A 7.725 7.725 0 0 0 36.304 19.287 A 8.968 8.968 0 0 0 32.422 17.274 Q 31.053 16.93 29.438 16.898 A 16.843 16.843 0 0 0 29.102 16.895 Q 25.695 16.895 23.351 18.011 A 8.498 8.498 0 0 0 21.851 18.921 A 7.205 7.205 0 0 0 20.178 20.672 A 6.031 6.031 0 0 0 19.189 24.072 A 5.177 5.177 0 0 0 20.222 27.139 Q 20.752 27.879 21.554 28.572 A 11.415 11.415 0 0 0 22.119 29.028 A 15.659 15.659 0 0 0 24.11 30.285 Q 26.352 31.5 29.876 32.758 A 84.193 84.193 0 0 0 32.422 33.618 A 86.841 86.841 0 0 1 37.581 35.446 Q 40.075 36.424 42.166 37.459 A 41.801 41.801 0 0 1 44.531 38.721 Q 56.055 45.361 56.055 57.031 A 19.821 19.821 0 0 1 54.938 63.827 A 16.997 16.997 0 0 1 49.023 71.68 Q 43.157 76.12 33.653 76.856 A 50.784 50.784 0 0 1 29.736 77.002 Q 21.094 77.002 14.087 73.901 A 28.038 28.038 0 0 1 8.62 70.749 A 21.139 21.139 0 0 1 3.54 65.405 A 21.698 21.698 0 0 1 0.056 54.724 A 26.768 26.768 0 0 1 0 52.979 L 17.188 52.979 A 17.507 17.507 0 0 0 17.448 56.106 Q 18.065 59.496 20.142 61.401 A 8.728 8.728 0 0 0 23.003 63.102 Q 25.516 64.048 29.235 64.107 A 31.524 31.524 0 0 0 29.736 64.111 A 15.945 15.945 0 0 0 32.418 63.9 Q 33.846 63.656 34.999 63.131 A 7.945 7.945 0 0 0 36.45 62.28 A 5.886 5.886 0 0 0 38.873 57.985 A 8.202 8.202 0 0 0 38.916 57.129 Q 38.916 53.369 36.255 51.27 Q 34.079 49.553 29.212 47.739 A 74.662 74.662 0 0 0 26.904 46.924 A 129.487 129.487 0 0 1 22.412 45.328 Q 20.317 44.538 18.54 43.767 A 57.352 57.352 0 0 1 15.967 42.578 A 34.354 34.354 0 0 1 9.601 38.614 Q 2.148 32.639 2.148 23.926 A 16.726 16.726 0 0 1 5.591 13.501 A 20.13 20.13 0 0 1 11.01 8.637 A 27.118 27.118 0 0 1 15.332 6.47 A 35.049 35.049 0 0 1 24.158 4.266 A 44.432 44.432 0 0 1 29.492 3.955 A 36.906 36.906 0 0 1 37.189 4.727 A 29.847 29.847 0 0 1 43.237 6.689 Q 49.316 9.424 52.686 14.478 A 20.161 20.161 0 0 1 56.042 25.219 A 24.529 24.529 0 0 1 56.055 26.025 Z M 96.045 76.025 L 95.557 70.313 A 16.688 16.688 0 0 1 83.379 76.919 A 22.092 22.092 0 0 1 81.445 77.002 Q 72.754 77.002 68.286 71.948 A 16.356 16.356 0 0 1 65.006 66.016 Q 64.227 63.581 63.959 60.641 A 35.494 35.494 0 0 1 63.818 57.422 L 63.818 23.193 L 80.273 23.193 L 80.273 57.52 Q 80.273 64.307 86.865 64.307 A 12.374 12.374 0 0 0 89.94 63.949 A 7.799 7.799 0 0 0 94.922 60.254 L 94.922 23.193 L 111.475 23.193 L 111.475 76.025 L 96.045 76.025 Z M 179.492 76.025 L 162.988 76.025 L 162.988 34.619 L 155.322 34.619 L 155.322 23.193 L 162.988 23.193 L 162.988 18.994 A 24.594 24.594 0 0 1 163.617 13.263 A 16.223 16.223 0 0 1 168.311 4.98 A 17.477 17.477 0 0 1 175.627 0.962 Q 179.025 0 183.252 0 A 28.011 28.011 0 0 1 186.938 0.256 Q 188.807 0.505 190.836 0.994 A 44.572 44.572 0 0 1 190.967 1.025 L 191.016 13.135 A 9.25 9.25 0 0 0 189.854 12.885 Q 189.241 12.79 188.519 12.743 A 23.897 23.897 0 0 0 186.963 12.695 A 12.596 12.596 0 0 0 184.145 12.982 Q 180.263 13.877 179.62 17.566 A 9.178 9.178 0 0 0 179.492 19.141 L 179.492 23.193 L 189.795 23.193 L 189.795 34.619 L 179.492 34.619 L 179.492 76.025 Z M 152.734 22.803 L 152.441 38.086 L 147.021 37.695 A 18.92 18.92 0 0 0 143.537 37.991 Q 141.673 38.341 140.282 39.107 A 7.286 7.286 0 0 0 137.061 42.578 L 137.061 76.025 L 120.605 76.025 L 120.605 23.193 L 136.035 23.193 L 136.572 29.98 A 18.336 18.336 0 0 1 139.315 26.066 A 11.629 11.629 0 0 1 148.145 22.217 A 20.011 20.011 0 0 1 150.312 22.328 Q 151.384 22.445 152.313 22.685 A 11.404 11.404 0 0 1 152.734 22.803 Z M 205.762 60.059 Q 209.668 60.059 212.256 62.378 A 7.544 7.544 0 0 1 214.834 67.864 A 9.763 9.763 0 0 1 214.844 68.311 A 8.221 8.221 0 0 1 214.275 71.414 A 7.588 7.588 0 0 1 212.256 74.243 A 9.01 9.01 0 0 1 207.123 76.488 A 12.059 12.059 0 0 1 205.762 76.563 A 10.933 10.933 0 0 1 202.679 76.147 A 8.608 8.608 0 0 1 199.243 74.219 A 7.617 7.617 0 0 1 196.686 68.669 A 9.662 9.662 0 0 1 196.68 68.311 A 8.102 8.102 0 0 1 197.321 65.051 A 7.759 7.759 0 0 1 199.243 62.402 A 8.851 8.851 0 0 1 204.184 60.159 A 12.025 12.025 0 0 1 205.762 60.059 Z" vector-effect="non-scaling-stroke"/></g></svg>