<svg width="207.975" height="77.157" viewBox="0 0 207.975 77.157" xmlns="http://www.w3.org/2000/svg"><g id="svgGroup" stroke-linecap="round" fill-rule="evenodd" font-size="9pt" stroke="#000" stroke-width="0.25mm" fill="none" style="stroke:#000;stroke-width:0.25mm;fill:none"><path d="M 31.408 48.342 L 23.4 45.022 A 42.748 42.748 0 0 1 16.471 41.171 Q 7.346 34.811 7.346 25.629 A 19.078 19.078 0 0 1 7.385 24.416 A 18.189 18.189 0 0 1 11.486 13.796 A 22.075 22.075 0 0 1 17.311 8.778 A 29.497 29.497 0 0 1 21.887 6.545 Q 28.527 3.957 36.389 4.055 Q 46.935 4.25 53.356 10.207 A 19.437 19.437 0 0 1 59.459 22.338 Q 59.699 24.175 59.68 26.174 L 43.078 26.174 A 16.377 16.377 0 0 0 43.089 25.59 Q 43.089 21.894 41.345 19.607 Q 39.731 17.49 36.336 17.118 A 13.575 13.575 0 0 0 35.168 17.043 A 16.333 16.333 0 0 0 34.788 17.039 Q 30.822 17.039 27.746 18.996 A 9.065 9.065 0 0 0 25.504 20.968 A 7.607 7.607 0 0 0 23.937 24.514 A 5.225 5.225 0 0 0 23.843 25.49 Q 23.843 29.294 29.797 31.948 A 27.724 27.724 0 0 0 31.188 32.522 A 162.325 162.325 0 0 1 34.998 34.029 Q 40.295 36.208 43.078 37.893 A 27.326 27.326 0 0 1 48.839 42.39 Q 54.059 47.846 54.059 55.356 A 22.468 22.468 0 0 1 54.015 56.74 A 19.832 19.832 0 0 1 51.978 64.484 A 19.045 19.045 0 0 1 50.06 67.531 A 21.217 21.217 0 0 1 43.898 72.892 A 27.737 27.737 0 0 1 40.173 74.709 A 33.901 33.901 0 0 1 31.237 76.903 Q 28.976 77.154 26.568 77.154 A 46.712 46.712 0 0 1 25.988 77.151 A 36.002 36.002 0 0 1 18.621 76.292 A 31.275 31.275 0 0 1 15.295 75.344 A 24.515 24.515 0 0 1 9.199 72.266 A 21.998 21.998 0 0 1 6.848 70.363 A 21.019 21.019 0 0 1 0.06 55.743 Q 0 54.824 0 53.871 A 30.871 30.871 0 0 1 0.012 53.029 L 16.76 53.078 A 21.951 21.951 0 0 0 16.728 54.098 Q 16.704 57.498 17.822 59.767 A 7.642 7.642 0 0 0 18.859 61.355 Q 21.252 64.162 26.916 64.162 A 15.087 15.087 0 0 0 30.098 63.844 A 10.636 10.636 0 0 0 33.923 62.234 A 7.994 7.994 0 0 0 37.345 56.993 A 9.966 9.966 0 0 0 37.365 56.887 A 7.587 7.587 0 0 0 37.502 55.727 Q 37.654 51.767 33.194 49.225 A 17.898 17.898 0 0 0 31.408 48.342 Z M 90.392 76.125 L 91.467 70.363 Q 85.719 77.156 77.661 77.156 A 19.353 19.353 0 0 1 77.209 77.151 A 18.145 18.145 0 0 1 72.375 76.481 A 12.685 12.685 0 0 1 65.514 71.731 Q 61.763 66.651 62.392 58.282 A 35.262 35.262 0 0 1 62.463 57.473 L 68.176 23.293 L 84.24 23.293 L 78.43 57.668 Q 78.301 58.907 78.397 59.959 A 8.982 8.982 0 0 0 78.43 60.256 A 5.397 5.397 0 0 0 78.875 62.064 Q 79.599 63.634 81.426 64.154 A 7.246 7.246 0 0 0 83.166 64.406 A 11.667 11.667 0 0 0 83.614 64.415 Q 87.879 64.415 91.047 61.232 A 14.212 14.212 0 0 0 91.808 60.402 L 98.351 23.293 L 114.514 23.293 L 105.334 76.125 L 90.392 76.125 Z M 171.838 76.125 L 155.724 76.125 L 162.902 34.719 L 155.48 34.719 L 157.433 23.293 L 164.855 23.244 L 165.49 18.606 A 25.316 25.316 0 0 1 167.332 11.986 A 19.834 19.834 0 0 1 172.228 5.178 Q 178.029 0 187.266 0 A 33.3 33.3 0 0 1 187.609 0.002 Q 190.051 0.002 195.568 1.076 L 194.348 13.235 A 22.521 22.521 0 0 0 192.821 12.889 Q 192.101 12.754 191.468 12.695 A 9.995 9.995 0 0 0 190.539 12.649 A 12.762 12.762 0 0 0 187.944 12.898 Q 186.068 13.288 184.655 14.284 A 7.115 7.115 0 0 0 181.913 18.16 A 9.485 9.485 0 0 0 181.701 18.996 L 180.969 23.293 L 190.978 23.293 L 189.025 34.719 L 179.015 34.719 L 171.838 76.125 Z M 154.211 22.854 L 152.111 38.186 A 47.52 47.52 0 0 0 148.339 37.765 A 41.606 41.606 0 0 0 147.131 37.697 A 19.286 19.286 0 0 0 146.61 37.69 Q 144.15 37.69 142.1 38.334 A 11.641 11.641 0 0 0 136.096 42.678 L 130.139 76.125 L 114.074 76.125 L 123.254 23.293 L 138.244 23.244 L 137.023 30.178 Q 142.199 22.17 149.23 22.17 Q 151.232 22.17 154.211 22.854 Z M 190.34 68.44 A 10.015 10.015 0 0 0 190.344 68.703 A 10.023 10.023 0 0 0 190.353 68.935 A 7.677 7.677 0 0 0 192.931 74.465 A 8.421 8.421 0 0 0 196.023 76.251 A 10.097 10.097 0 0 0 199.133 76.711 A 11.383 11.383 0 0 0 199.25 76.71 A 8.833 8.833 0 0 0 205.48 74.245 Q 208.068 71.779 207.971 68.117 A 10.014 10.014 0 0 0 207.956 67.786 A 7.562 7.562 0 0 0 205.334 62.331 A 8.751 8.751 0 0 0 202.574 60.682 A 9.757 9.757 0 0 0 199.181 60.11 A 8.951 8.951 0 0 0 192.883 62.551 A 7.86 7.86 0 0 0 191.037 65.063 Q 190.34 66.59 190.34 68.44 Z" vector-effect="non-scaling-stroke"/></g></svg>